<svg xmlns="http://www.w3.org/2000/svg" width="500" height="500" viewBox="0 0 500 500">
<g>
<path d="M 497.20 212.70 C498.42,220.56 499.55,227.00 499.71,227.00 C499.87,227.00 500.00,175.93 500.00,113.50 L 500.00 500.00 L 0.00 500.00 L 0.00 0.00 L 500.00 0.00 L 379.25 0.14 C302.70,0.23 262.53,0.59 269.50,1.14 C320.36,5.12 366.21,23.15 406.50,54.99 C417.89,63.99 439.19,85.76 448.18,97.57 C474.62,132.32 490.54,169.72 497.20,212.70 ZM 235.50 470.97 C252.74,472.38 279.50,470.46 294.50,466.74 L 299.50 465.50 L 299.50 449.71 L 294.89 448.36 C289.21,446.71 282.43,439.81 281.48,434.72 C281.12,432.82 280.98,425.88 281.16,419.30 C281.54,405.91 282.84,402.71 289.84,397.91 C293.17,395.62 294.13,395.50 308.58,395.50 L 323.81 395.50 L 327.66 398.56 C333.81,403.47 335.45,407.80 335.84,420.23 C336.37,437.07 332.26,445.37 321.88,448.42 L 317.50 449.71 L 317.20 455.36 C317.04,458.46 317.14,461.00 317.44,461.00 C319.43,461.00 340.60,452.26 349.98,447.55 C372.71,436.16 398.91,416.05 415.00,397.64 C448.25,359.59 468.46,311.54 470.67,265.25 L 471.31 252.00 L 421.28 252.00 L 420.64 258.15 C419.83,265.93 419.80,287.33 420.61,289.42 C420.94,290.29 421.95,291.01 422.86,291.02 C427.05,291.08 433.07,295.04 436.05,299.70 L 439.13 304.50 L 438.81 319.16 C438.50,333.80 438.50,333.82 435.44,337.66 C430.26,344.17 425.33,346.00 412.94,346.00 C401.44,346.00 397.30,345.06 392.24,341.30 C386.27,336.87 385.00,332.78 385.00,317.99 C385.00,308.52 385.40,304.13 386.45,302.10 C388.68,297.78 394.64,293.09 399.56,291.77 L 404.00 290.59 L 404.00 252.00 L 393.68 252.00 C387.25,252.00 381.39,251.41 378.12,250.44 C372.03,248.64 365.84,243.47 362.68,237.57 C360.56,233.60 360.49,232.34 360.00,187.90 C359.60,151.28 359.23,141.98 358.13,140.65 C356.93,139.21 354.01,139.00 335.13,138.99 C322.59,138.99 311.82,138.53 309.50,137.89 C304.09,136.41 297.79,131.45 294.41,126.00 C291.79,121.77 291.60,120.67 291.20,107.88 L 290.78 94.25 L 286.87 93.08 C281.79,91.56 276.15,86.54 273.86,81.51 C272.46,78.42 272.04,74.99 272.03,66.50 C272.02,52.94 274.14,47.25 281.01,42.50 C285.32,39.51 285.39,39.50 299.42,39.52 C314.75,39.55 317.06,40.17 322.11,45.66 C326.03,49.91 327.00,54.12 327.00,66.83 C327.00,76.47 326.66,79.08 324.92,82.66 C322.29,88.10 317.97,91.75 312.38,93.24 L 308.00 94.41 L 308.00 105.56 C308.00,116.01 308.15,116.87 310.45,119.35 L 312.90 122.00 L 335.70 122.02 C356.48,122.04 358.90,122.22 363.00,124.08 C369.05,126.83 371.81,129.54 374.62,135.50 L 376.98 140.50 L 377.00 229.15 L 379.92 232.08 L 382.85 235.00 L 426.36 235.00 C451.51,235.00 470.12,234.61 470.45,234.09 C470.76,233.59 470.33,227.99 469.50,221.65 C459.93,148.67 415.37,85.76 349.73,52.57 C324.61,39.86 299.25,32.65 270.50,30.01 C241.22,27.33 208.95,30.96 181.11,40.07 C127.46,57.63 81.60,96.43 54.73,147.00 C49.31,157.20 41.50,175.46 40.83,179.50 C40.51,181.46 41.13,181.50 75.25,181.76 L 110.00 182.03 L 110.01 156.76 C110.01,141.65 110.45,129.93 111.10,127.58 C112.89,121.13 116.62,116.26 122.25,113.03 C127.31,110.13 127.95,110.02 140.00,110.00 C155.09,109.97 156.62,109.63 157.32,106.16 C158.02,102.66 161.80,97.21 165.32,94.59 C167.83,92.73 169.78,92.46 182.97,92.18 C200.72,91.80 204.10,92.91 208.63,100.63 C210.97,104.63 211.40,106.64 211.79,115.45 C212.52,131.84 208.85,140.66 199.69,144.49 C194.45,146.68 173.10,146.60 168.70,144.38 C162.18,141.09 157.00,134.04 157.00,128.46 L 157.00 125.84 L 143.91 126.17 C131.55,126.48 130.71,126.63 128.91,128.86 C127.08,131.12 127.00,133.64 127.00,189.56 C127.00,231.78 127.32,248.61 128.16,250.46 C129.63,253.67 134.89,255.20 143.10,254.80 L 149.15 254.50 L 150.94 249.20 C154.86,237.59 160.94,234.63 179.82,235.15 C192.64,235.50 192.87,235.54 196.66,238.61 C203.75,244.34 204.50,246.65 204.50,262.66 C204.50,276.79 204.49,276.84 201.50,281.07 C196.81,287.71 192.48,289.44 179.54,289.84 C173.09,290.05 166.99,289.71 164.72,289.04 C159.51,287.47 153.47,281.79 151.48,276.58 L 149.84 272.29 L 139.72 271.68 C131.44,271.17 128.60,270.56 124.05,268.28 C117.88,265.19 112.71,259.20 111.05,253.22 C110.46,251.11 110.01,238.56 110.01,224.25 L 110.00 199.00 L 72.57 199.00 C37.78,199.00 35.10,199.12 34.62,200.75 C32.97,206.31 30.80,221.41 29.78,234.25 C26.36,277.78 37.50,325.03 60.14,362.88 C72.50,383.55 93.96,408.31 111.56,422.21 C147.81,450.83 189.42,467.20 235.50,470.97 ZM 152.22 425.96 C146.74,427.48 129.24,427.13 124.53,425.41 C119.96,423.73 115.51,419.83 113.26,415.51 C112.03,413.16 111.74,409.53 111.88,398.51 C112.06,385.13 112.19,384.34 114.73,380.67 C117.59,376.54 125.31,372.00 129.47,372.00 L 132.00 372.00 L 132.00 359.05 C132.00,351.93 132.50,343.71 133.11,340.80 C135.43,329.67 143.92,319.27 154.82,314.18 L 160.50 311.52 L 215.55 311.01 C276.65,310.44 273.70,310.79 278.06,303.70 C279.82,300.83 279.99,298.92 279.76,285.00 L 279.50 269.50 L 274.15 268.85 C262.33,267.40 250.61,258.59 245.11,247.00 C242.75,242.02 242.45,240.05 242.00,226.15 L 241.50 210.81 L 237.76 209.53 C232.21,207.62 229.31,205.42 226.25,200.80 C223.58,196.77 223.50,196.23 223.53,183.07 C223.57,168.57 224.29,165.79 229.15,161.37 C234.26,156.72 237.19,156.00 250.99,156.00 C266.32,156.00 270.21,157.35 274.75,164.20 C277.44,168.26 277.50,168.69 277.50,183.09 L 277.50 197.83 L 274.47 202.16 C272.07,205.58 270.12,207.01 265.22,208.93 L 259.00 211.35 L 259.00 224.22 C259.00,238.08 260.08,242.03 265.15,246.63 C271.37,252.29 272.20,252.42 305.00,252.98 L 335.50 253.50 L 341.83 256.93 C349.05,260.85 353.86,265.99 357.77,273.96 C360.42,279.38 360.49,279.96 360.82,301.28 L 361.17 323.05 L 365.99 325.49 C375.39,330.26 377.32,335.15 376.84,353.10 C376.52,365.05 376.36,365.89 373.64,369.80 C369.03,376.44 364.23,378.18 350.10,378.29 C339.30,378.39 337.81,378.17 333.38,375.89 C329.97,374.14 327.63,371.95 325.54,368.57 C322.59,363.80 322.55,363.57 322.69,350.37 C322.84,335.33 323.59,333.06 330.21,327.71 C332.89,325.55 335.33,324.58 338.96,324.23 L 344.00 323.75 L 343.98 304.12 C343.95,282.85 343.21,279.20 337.88,274.32 C333.82,270.59 330.47,270.00 313.52,270.00 L 297.17 270.00 L 296.83 287.25 C296.51,303.80 296.39,304.73 293.69,310.21 C290.25,317.22 283.62,323.25 276.36,325.97 C271.92,327.63 268.55,328.00 257.96,328.00 L 245.00 328.00 L 245.00 353.74 L 248.75 354.35 C253.58,355.13 259.75,360.25 262.11,365.43 C263.54,368.59 263.96,371.97 263.98,380.60 C264.01,396.77 261.53,402.45 252.60,406.61 C248.23,408.64 245.96,408.98 236.72,408.99 C221.64,409.00 215.25,405.91 210.90,396.50 C208.09,390.43 208.20,371.29 211.08,365.34 C213.71,359.90 218.03,356.25 223.62,354.76 L 228.00 353.59 L 228.00 328.00 L 196.97 328.00 C163.20,328.00 161.57,328.23 155.62,333.80 C150.16,338.93 149.05,343.04 149.02,358.21 L 149.00 371.92 L 153.12 373.15 C157.85,374.57 162.68,378.98 164.64,383.69 C166.80,388.86 166.45,410.41 164.12,415.54 C161.88,420.47 157.19,424.57 152.22,425.96 ZM 0.12 379.25 L 0.00 500.00 L 228.50 499.81 L 212.00 497.00 C184.85,492.36 164.65,485.93 141.50,474.54 C114.18,461.09 95.59,447.76 73.94,426.08 C58.55,410.66 49.33,399.37 39.83,384.30 C17.42,348.77 5.32,313.30 1.49,272.00 C0.42,260.41 0.23,275.56 0.12,379.25 ZM 0.14 120.25 C0.22,190.24 0.62,236.53 1.09,231.00 C2.39,215.77 3.91,206.43 7.49,191.50 C30.75,94.60 111.03,20.06 210.00,3.46 C212.48,3.05 220.57,2.15 228.00,1.48 C239.50,0.42 223.65,0.22 120.75,0.12 L 0.00 0.00 ZM 274.50 499.31 C274.47,499.31 274.46,499.32 274.46,499.32 C274.46,499.53 323.92,499.77 385.75,499.85 L 500.00 500.00 L 499.82 271.50 L 497.98 283.67 C489.34,340.72 463.90,390.80 423.88,429.51 C404.68,448.08 384.27,462.36 359.50,474.55 C333.43,487.38 306.90,495.11 274.50,499.31 ZM 402.67 328.33 C403.03,328.70 407.29,329.00 412.13,329.00 C419.99,329.00 421.05,328.78 422.03,326.94 C423.07,325.00 423.23,311.94 422.24,309.25 C421.92,308.37 418.90,308.00 411.89,308.00 L 402.00 308.00 L 402.00 317.83 C402.00,323.24 402.30,327.97 402.67,328.33 ZM 226.48 389.78 C227.04,392.00 227.37,392.06 236.78,391.79 L 246.50 391.50 L 247.07 370.93 L 226.50 371.50 L 226.20 379.50 C226.04,383.89 226.17,388.52 226.48,389.78 ZM 174.70 128.37 C175.09,128.75 179.70,128.94 184.95,128.78 L 194.50 128.50 L 194.79 119.65 C194.98,113.99 194.66,110.30 193.92,109.40 C193.10,108.42 190.42,108.00 184.96,108.00 C184.60,108.00 184.25,108.00 183.91,108.00 C178.87,107.99 176.39,107.99 175.17,109.23 C173.99,110.43 173.99,112.79 174.00,117.44 C174.00,117.76 174.00,118.10 174.00,118.44 C174.00,123.51 174.32,127.98 174.70,128.37 ZM 168.21 272.17 C168.92,272.63 173.55,272.89 178.50,272.75 L 187.50 272.50 L 188.07 251.93 L 167.50 252.50 L 167.21 261.92 C167.00,268.77 167.27,271.56 168.21,272.17 ZM 290.11 75.63 C291.02,76.73 293.45,77.00 300.40,76.79 L 309.50 76.50 L 309.79 66.21 L 310.07 55.93 L 289.50 56.50 L 289.21 65.35 C289.02,71.13 289.33,74.70 290.11,75.63 ZM 241.11 192.63 C242.02,193.73 244.45,194.00 251.40,193.79 L 260.50 193.50 L 261.07 172.93 L 240.50 173.50 L 240.21 182.35 C240.02,188.13 240.33,191.70 241.11,192.63 ZM 129.11 408.63 C130.02,409.73 132.45,410.00 139.40,409.79 L 148.50 409.50 L 149.07 388.93 L 128.50 389.50 L 128.21 398.35 C128.02,404.13 128.33,407.70 129.11,408.63 ZM 340.70 360.77 C341.91,361.66 345.18,361.98 350.99,361.79 L 359.50 361.50 L 360.07 340.93 L 339.50 341.50 L 339.21 350.48 C338.96,358.16 339.17,359.65 340.70,360.77 ZM 299.21 432.15 C301.50,433.61 316.62,433.16 317.92,431.60 C318.66,430.70 318.98,427.01 318.79,421.35 L 318.50 412.50 L 298.50 412.50 L 298.21 421.92 C298.00,428.78 298.27,431.56 299.21,432.15 Z" fill="rgb(5,157,217)"/>
<path d="M 0.12 379.25 C0.23,275.56 0.42,260.41 1.49,272.00 C1.86,276.00 2.31,279.94 2.84,283.83 C2.22,279.68 1.65,275.41 1.14,271.00 C0.60,266.36 0.22,308.57 0.13,381.75 L 0.00 500.00 ZM 221.81 2.07 C224.10,1.78 226.64,1.47 229.50,1.12 C233.73,0.60 189.70,0.21 118.25,0.13 L 0.00 0.00 L 120.75 0.12 C223.65,0.22 239.50,0.42 228.00,1.48 C225.94,1.66 223.84,1.87 221.81,2.07 ZM 356.42 0.18 C298.73,0.31 267.12,0.66 271.50,1.14 C273.54,1.36 276.41,1.71 279.49,2.11 C276.18,1.73 272.85,1.40 269.50,1.14 C263.26,0.65 294.81,0.31 356.42,0.18 ZM 289.88 3.53 L 290.00 3.55 C305.74,5.85 321.52,9.96 336.96,15.72 C321.83,10.15 306.13,6.09 289.88,3.53 ZM 0.28 174.02 C0.45,210.40 0.75,232.29 1.08,229.50 C1.33,227.40 1.56,225.46 1.79,223.64 C1.54,225.96 1.31,228.39 1.09,231.00 C0.75,234.94 0.45,212.55 0.28,174.02 ZM 13.39 329.42 C17.48,341.56 22.57,353.38 28.72,365.09 C22.49,353.31 17.46,341.66 13.39,329.42 ZM 4.81 203.58 C5.54,199.82 6.38,196.06 7.48,191.50 C8.41,187.66 9.42,183.85 10.52,180.08 C9.43,183.85 8.41,187.66 7.49,191.50 C6.43,195.92 5.55,199.84 4.81,203.58 Z" fill="rgb(78,173,214)"/>
<path d="M 305.95 36.02 C311.75,37.50 317.46,39.23 323.10,41.20 C320.68,40.43 318.85,40.00 317.80,40.00 C316.48,40.00 316.44,40.43 318.18,42.11 C314.76,39.87 310.48,39.54 299.42,39.52 C289.23,39.51 286.40,39.51 283.97,40.65 C286.36,39.52 289.03,39.50 298.16,39.50 C305.22,39.50 311.00,39.18 311.00,38.79 C311.00,37.95 309.13,37.00 305.95,36.02 ZM 181.83 9.88 C151.23,18.73 122.95,33.24 98.28,52.21 C120.98,34.66 146.65,20.96 174.27,12.12 C176.63,11.37 179.18,10.61 181.83,9.88 ZM 25.46 141.36 C19.45,153.73 14.44,166.67 10.52,180.08 C9.42,183.85 8.41,187.66 7.48,191.50 C6.38,196.06 5.54,199.82 4.81,203.58 C3.65,209.37 2.81,214.71 2.11,220.70 C2.98,209.23 8.86,183.17 14.04,168.50 C17.33,159.20 21.15,150.14 25.46,141.36 ZM 227.73 30.35 C211.68,32.13 194.81,35.58 181.11,40.07 C195.78,35.27 211.69,31.99 227.73,30.35 ZM 260.68 29.35 C263.99,29.49 267.26,29.71 270.50,30.01 C277.43,30.65 284.16,31.55 290.74,32.73 C281.61,31.21 270.65,29.93 260.68,29.35 ZM 279.58 2.12 C287.03,2.74 303.88,5.69 312.69,8.02 C318.21,9.47 323.67,11.11 329.07,12.93 C316.17,8.62 303.07,5.46 290.00,3.55 L 289.88 3.53 C286.47,2.99 283.04,2.53 279.58,2.12 ZM 334.48 45.55 C339.59,47.67 344.67,50.01 349.73,52.57 C356.43,55.95 362.90,59.65 369.14,63.63 C424.09,98.69 460.91,156.11 469.50,221.65 C460.91,156.10 423.92,98.49 369.14,63.63 C362.21,59.22 355.00,55.17 347.53,51.52 C342.96,49.29 338.51,47.26 334.48,45.55 ZM 4.85 296.43 C3.49,289.45 2.46,282.96 2.12,278.78 C2.35,280.48 2.59,282.17 2.84,283.83 C3.41,288.09 4.08,292.29 4.85,296.43 ZM 335.70 122.02 L 312.90 122.00 L 335.70 122.01 C351.93,122.02 356.74,122.07 360.10,123.02 C356.72,122.15 351.56,122.04 335.70,122.02 ZM 1.38 226.99 C1.28,227.80 1.18,228.64 1.08,229.50 C0.99,230.25 0.91,229.22 0.82,226.62 C0.88,227.24 0.94,227.54 1.00,227.50 C1.13,227.42 1.26,227.24 1.38,226.99 ZM 227.76 1.33 C227.92,1.23 228.00,1.12 228.00,1.00 C228.00,0.95 227.77,0.90 227.30,0.85 C229.48,0.94 230.25,1.02 229.50,1.12 C228.91,1.19 228.33,1.26 227.76,1.33 ZM 370.22 128.78 C372.08,130.61 373.50,132.87 374.92,136.00 C375.10,136.40 375.26,136.78 375.41,137.18 L 374.62 135.50 C373.27,132.63 371.93,130.51 370.22,128.78 ZM 221.81 2.07 C218.95,2.36 216.24,2.66 214.09,2.92 C217.11,2.48 219.78,2.18 221.92,2.06 ZM 272.86 0.88 C272.59,0.92 272.47,0.96 272.50,1.00 C272.56,1.10 272.69,1.20 272.87,1.29 C272.38,1.24 271.92,1.19 271.50,1.14 C270.66,1.05 271.14,0.96 272.86,0.88 ZM 1.28 272.17 C1.19,272.06 1.10,272.00 1.00,272.00 C0.96,272.00 0.93,272.12 0.89,272.37 C0.97,270.73 1.05,270.25 1.14,271.00 C1.19,271.39 1.23,271.78 1.28,272.17 ZM 281.00 42.50 C281.80,41.94 282.46,41.49 283.08,41.13 C282.46,41.49 281.81,41.94 281.01,42.50 C278.59,44.17 276.76,45.96 275.41,48.17 C276.76,45.96 278.59,44.17 281.00,42.50 ZM 10.47 320.11 C10.30,319.53 10.13,318.93 9.95,318.33 C10.12,318.92 10.29,319.51 10.47,320.11 Z" fill="rgb(156,221,241)"/>
<path d="M 0.00 386.00 C0.00,310.67 0.34,272.00 1.00,272.00 C1.55,272.00 2.00,273.92 2.00,276.28 C2.00,283.80 6.79,308.17 10.91,321.57 C17.81,344.07 26.93,363.84 39.83,384.30 C49.33,399.37 58.55,410.66 73.94,426.08 C95.59,447.76 114.18,461.09 141.50,474.54 C164.65,485.93 184.85,492.36 212.00,497.00 L 228.50 499.81 L 114.25 499.91 L 0.00 500.00 L 0.00 386.00 ZM 274.50 499.31 C306.90,495.11 333.43,487.38 359.50,474.55 C384.27,462.36 404.68,448.08 423.88,429.51 C463.90,390.80 489.34,340.72 497.98,283.67 L 499.82 271.50 L 499.91 385.75 L 500.00 500.00 L 385.75 499.85 C322.91,499.77 272.85,499.53 274.50,499.31 ZM 235.50 470.97 C189.42,467.20 147.81,450.83 111.56,422.21 C93.96,408.31 72.50,383.55 60.14,362.88 C37.50,325.03 26.36,277.78 29.78,234.25 C30.80,221.41 32.97,206.31 34.62,200.75 C35.10,199.12 37.78,199.00 72.57,199.00 L 110.00 199.00 L 110.01 224.25 C110.01,238.56 110.46,251.11 111.05,253.22 C112.71,259.20 117.88,265.19 124.05,268.28 C128.60,270.56 131.44,271.17 139.72,271.68 L 149.84 272.29 L 151.48 276.58 C153.47,281.79 159.51,287.47 164.72,289.04 C166.99,289.71 173.09,290.05 179.54,289.84 C192.48,289.44 196.81,287.71 201.50,281.07 C204.49,276.84 204.50,276.79 204.50,262.66 C204.50,246.65 203.75,244.34 196.66,238.61 C192.87,235.54 192.64,235.50 179.82,235.15 C160.94,234.63 154.86,237.59 150.94,249.20 L 149.15 254.50 L 143.10 254.80 C134.89,255.20 129.63,253.67 128.16,250.46 C127.32,248.61 127.00,231.78 127.00,189.56 C127.00,133.64 127.08,131.12 128.91,128.86 C130.71,126.63 131.55,126.48 143.91,126.17 L 157.00 125.84 L 157.00 128.46 C157.00,134.04 162.18,141.09 168.70,144.38 C173.10,146.60 194.45,146.68 199.69,144.49 C208.85,140.66 212.52,131.84 211.79,115.45 C211.40,106.64 210.97,104.63 208.63,100.63 C204.10,92.91 200.72,91.80 182.97,92.18 C169.78,92.46 167.83,92.73 165.32,94.59 C161.80,97.21 158.02,102.66 157.32,106.16 C156.62,109.63 155.09,109.97 140.00,110.00 C127.95,110.02 127.31,110.13 122.25,113.03 C116.62,116.26 112.89,121.13 111.10,127.58 C110.45,129.93 110.01,141.65 110.01,156.76 L 110.00 182.03 L 75.25 181.76 C41.13,181.50 40.51,181.46 40.83,179.50 C41.50,175.46 49.31,157.20 54.73,147.00 C81.60,96.43 127.46,57.63 181.11,40.07 C201.44,33.41 228.76,29.03 250.00,29.01 C273.34,29.00 311.00,35.03 311.00,38.79 C311.00,39.18 305.22,39.50 298.16,39.50 C285.53,39.50 285.26,39.55 281.00,42.50 C274.14,47.25 272.02,52.94 272.03,66.50 C272.04,74.99 272.46,78.42 273.86,81.51 C276.15,86.54 281.79,91.56 286.87,93.08 L 290.78 94.25 L 291.20 107.88 C291.60,120.67 291.79,121.77 294.41,126.00 C297.79,131.45 304.09,136.41 309.50,137.89 C311.82,138.53 322.59,138.99 335.13,138.99 C354.01,139.00 356.93,139.21 358.13,140.65 C359.23,141.98 359.60,151.28 360.00,187.90 C360.49,232.34 360.56,233.60 362.68,237.57 C365.84,243.47 372.03,248.64 378.12,250.44 C381.39,251.41 387.25,252.00 393.68,252.00 L 404.00 252.00 L 404.00 271.29 L 404.00 290.59 L 399.56 291.77 C394.64,293.09 388.68,297.78 386.45,302.10 C385.40,304.13 385.00,308.52 385.00,317.99 C385.00,332.78 386.27,336.87 392.24,341.30 C397.30,345.06 401.44,346.00 412.94,346.00 C425.33,346.00 430.26,344.17 435.44,337.66 C438.50,333.82 438.50,333.80 438.81,319.16 L 439.13 304.50 L 436.05 299.70 C433.07,295.04 427.05,291.08 422.86,291.02 C421.95,291.01 420.94,290.29 420.61,289.42 C419.80,287.33 419.83,265.93 420.64,258.15 L 421.28 252.00 L 446.30 252.00 L 471.31 252.00 L 470.67 265.25 C468.46,311.54 448.25,359.59 415.00,397.64 C398.91,416.05 372.71,436.16 349.98,447.55 C340.60,452.26 319.43,461.00 317.44,461.00 C317.14,461.00 317.04,458.46 317.20,455.36 L 317.50 449.71 L 321.88 448.42 C332.26,445.37 336.37,437.07 335.84,420.23 C335.45,407.80 333.81,403.47 327.66,398.56 L 323.81 395.50 L 308.58 395.50 C294.13,395.50 293.17,395.62 289.84,397.91 C282.84,402.71 281.54,405.91 281.16,419.30 C280.98,425.88 281.12,432.82 281.48,434.72 C282.43,439.81 289.21,446.71 294.89,448.36 L 299.50 449.71 L 299.50 457.60 L 299.50 465.50 L 294.50 466.74 C279.50,470.46 252.74,472.38 235.50,470.97 ZM 152.22 425.96 C157.19,424.57 161.88,420.47 164.12,415.54 C166.45,410.41 166.80,388.86 164.64,383.69 C162.68,378.98 157.85,374.57 153.12,373.15 L 149.00 371.92 L 149.02 358.21 C149.05,343.04 150.16,338.93 155.62,333.80 C161.57,328.23 163.20,328.00 196.97,328.00 L 228.00 328.00 L 228.00 340.79 L 228.00 353.59 L 223.62 354.76 C218.03,356.25 213.71,359.90 211.08,365.34 C208.20,371.29 208.09,390.43 210.90,396.50 C215.25,405.91 221.64,409.00 236.72,408.99 C245.96,408.98 248.23,408.64 252.60,406.61 C261.53,402.45 264.01,396.77 263.98,380.60 C263.96,371.97 263.54,368.59 262.11,365.43 C259.75,360.25 253.58,355.13 248.75,354.35 L 245.00 353.74 L 245.00 340.87 L 245.00 328.00 L 257.96 328.00 C268.55,328.00 271.92,327.63 276.36,325.97 C283.62,323.25 290.25,317.22 293.69,310.21 C296.39,304.73 296.51,303.80 296.83,287.25 L 297.17 270.00 L 313.52 270.00 C330.47,270.00 333.82,270.59 337.88,274.32 C343.21,279.20 343.95,282.85 343.98,304.12 L 344.00 323.75 L 338.96 324.23 C335.33,324.58 332.89,325.55 330.21,327.71 C323.59,333.06 322.84,335.33 322.69,350.37 C322.55,363.57 322.59,363.80 325.54,368.57 C327.63,371.95 329.97,374.14 333.38,375.89 C337.81,378.17 339.30,378.39 350.10,378.29 C364.23,378.18 369.03,376.44 373.64,369.80 C376.36,365.89 376.52,365.05 376.84,353.10 C377.32,335.15 375.39,330.26 365.99,325.49 L 361.17 323.05 L 360.82 301.28 C360.49,279.96 360.42,279.38 357.77,273.96 C353.86,265.99 349.05,260.85 341.83,256.93 L 335.50 253.50 L 305.00 252.98 C272.20,252.42 271.37,252.29 265.15,246.63 C260.08,242.03 259.00,238.08 259.00,224.22 L 259.00 211.35 L 265.22 208.93 C270.12,207.01 272.07,205.58 274.47,202.16 L 277.50 197.83 L 277.50 183.09 C277.50,168.69 277.44,168.26 274.75,164.20 C270.21,157.35 266.32,156.00 250.99,156.00 C237.19,156.00 234.26,156.72 229.15,161.37 C224.29,165.79 223.57,168.57 223.53,183.07 C223.50,196.23 223.58,196.77 226.25,200.80 C229.31,205.42 232.21,207.62 237.76,209.53 L 241.50 210.81 L 242.00 226.15 C242.45,240.05 242.75,242.02 245.11,247.00 C250.61,258.59 262.33,267.40 274.15,268.85 L 279.50 269.50 L 279.76 285.00 C279.99,298.92 279.82,300.83 278.06,303.70 C273.70,310.79 276.65,310.44 215.55,311.01 L 160.50 311.52 L 154.82 314.18 C143.92,319.27 135.43,329.67 133.11,340.80 C132.50,343.71 132.00,351.93 132.00,359.05 L 132.00 372.00 L 129.47 372.00 C125.31,372.00 117.59,376.54 114.73,380.67 C112.19,384.34 112.06,385.13 111.88,398.51 C111.74,409.53 112.03,413.16 113.26,415.51 C115.51,419.83 119.96,423.73 124.53,425.41 C129.24,427.13 146.74,427.48 152.22,425.96 ZM 299.21 432.15 C298.27,431.56 298.00,428.78 298.21,421.92 L 298.50 412.50 L 308.50 412.50 L 318.50 412.50 L 318.79 421.35 C318.98,427.01 318.66,430.70 317.92,431.60 C316.62,433.16 301.50,433.61 299.21,432.15 ZM 402.67 328.33 C402.30,327.97 402.00,323.24 402.00,317.83 L 402.00 308.00 L 411.89 308.00 C418.90,308.00 421.92,308.37 422.24,309.25 C423.23,311.94 423.07,325.00 422.03,326.94 C421.05,328.78 419.99,329.00 412.13,329.00 C407.29,329.00 403.03,328.70 402.67,328.33 ZM 168.21 272.17 C167.27,271.56 167.00,268.77 167.21,261.92 L 167.50 252.50 L 177.79 252.21 L 188.07 251.93 L 187.79 262.21 L 187.50 272.50 L 178.50 272.75 C173.55,272.89 168.92,272.63 168.21,272.17 ZM 379.92 232.08 L 377.00 229.15 L 376.98 184.83 C376.96,142.37 376.87,140.31 374.92,136.00 C372.17,129.95 369.46,127.19 363.50,124.38 C358.71,122.12 357.56,122.02 335.70,122.01 L 312.90 122.00 L 310.45 119.35 C308.15,116.87 308.00,116.01 308.00,105.56 L 308.00 94.41 L 312.38 93.24 C317.97,91.75 322.29,88.10 324.92,82.66 C326.65,79.09 327.00,76.47 327.00,67.05 C327.00,52.73 325.88,48.95 320.18,43.93 C316.53,40.71 316.10,40.00 317.80,40.00 C321.35,40.00 333.92,44.87 347.53,51.52 C414.11,84.05 459.82,147.81 469.50,221.65 C470.33,227.99 470.76,233.59 470.45,234.09 C470.12,234.61 451.51,235.00 426.36,235.00 L 382.85 235.00 L 379.92 232.08 ZM 0.00 114.06 L 0.00 0.00 L 114.00 0.00 C189.33,0.00 228.00,0.34 228.00,1.00 C228.00,1.55 226.09,2.00 223.75,2.00 C214.65,2.01 190.31,6.99 174.27,12.12 C100.26,35.80 40.22,94.39 14.04,168.50 C8.44,184.36 2.01,213.55 2.00,223.19 C2.00,225.22 1.55,227.16 1.00,227.50 C0.34,227.91 0.00,189.84 0.00,114.06 ZM 497.20 212.70 C490.54,169.72 474.62,132.32 448.18,97.57 C439.19,85.76 417.89,63.99 406.50,54.99 C378.63,32.97 346.71,16.98 312.69,8.02 C302.80,5.41 282.80,2.01 277.31,2.01 C275.00,2.00 272.84,1.55 272.50,1.00 C272.09,0.34 310.16,-0.00 385.94,-0.00 L 500.00 0.00 L 500.00 113.50 C500.00,175.93 499.87,227.00 499.71,227.00 C499.55,227.00 498.42,220.56 497.20,212.70 ZM 174.70 128.37 C174.32,127.98 174.00,123.51 174.00,118.44 C174.00,107.64 173.63,108.00 184.96,108.00 C190.42,108.00 193.10,108.42 193.92,109.40 C194.66,110.30 194.98,113.99 194.79,119.65 L 194.50 128.50 L 184.95 128.78 C179.70,128.94 175.09,128.75 174.70,128.37 ZM 290.11 75.63 C289.33,74.70 289.02,71.13 289.21,65.35 L 289.50 56.50 L 299.79 56.21 L 310.07 55.93 L 309.79 66.21 L 309.50 76.50 L 300.40 76.79 C293.45,77.00 291.02,76.73 290.11,75.63 ZM 129.11 408.63 C128.33,407.70 128.02,404.13 128.21,398.35 L 128.50 389.50 L 138.79 389.21 L 149.07 388.93 L 148.79 399.21 L 148.50 409.50 L 139.40 409.79 C132.45,410.00 130.02,409.73 129.11,408.63 ZM 226.48 389.78 C226.17,388.52 226.04,383.89 226.20,379.50 L 226.50 371.50 L 236.79 371.21 L 247.07 370.93 L 246.79 381.21 L 246.50 391.50 L 236.78 391.79 C227.37,392.06 227.04,392.00 226.48,389.78 ZM 340.70 360.77 C339.17,359.65 338.96,358.16 339.21,350.48 L 339.50 341.50 L 349.79 341.21 L 360.07 340.93 L 359.79 351.21 L 359.50 361.50 L 350.99 361.79 C345.18,361.98 341.91,361.66 340.70,360.77 ZM 241.11 192.63 C240.33,191.70 240.02,188.13 240.21,182.35 L 240.50 173.50 L 250.79 173.21 L 261.07 172.93 L 260.79 183.21 L 260.50 193.50 L 251.40 193.79 C244.45,194.00 242.02,193.73 241.11,192.63 Z" fill="rgb(252,254,254)"/>
</g>
</svg>